<svg width="740" height="500" viewBox="0 0 740 500" fill="none" xmlns="http://www.w3.org/2000/svg">
<path d="M290.784 3.26222C294.275 4.17514 294.718 4.17514 303.027 3.85794C307.763 3.65872 314.987 3.50012 319.082 3.50012H326.507L330.844 5.20604C334.054 6.51546 335.58 6.91196 336.905 6.83266C337.868 6.75336 338.911 6.91196 339.234 7.14986C340.077 7.82294 343.168 8.73586 345.576 9.055C347.624 9.2929 347.864 9.4515 348.988 11.0394C349.63 11.991 350.514 12.9039 350.995 13.0625C351.436 13.2212 357.057 13.459 363.438 13.579C371.184 13.7376 375.36 13.9755 375.88 14.2927C376.362 14.5306 377.526 15.722 378.489 16.9521C379.774 18.5401 381.18 19.6503 383.507 20.9597C385.996 22.3078 386.998 23.1414 387.68 24.3328C388.924 26.5552 390.731 27.9052 392.377 27.9052C394.023 27.9052 394.945 28.7388 396.15 31.437C396.833 32.905 397.394 33.5394 398.117 33.7386C399.2 33.9765 399.442 34.1757 405.463 39.2935C408.192 41.6357 409.397 42.9432 409.637 43.8561C409.879 44.6897 410.32 45.2042 410.842 45.2835C411.283 45.3628 411.966 45.8792 412.327 46.4749C413.532 48.4594 416.863 51.5927 418.348 52.1091C419.472 52.5443 419.834 52.9021 419.994 53.8943C420.315 55.5616 422.002 56.3159 427.18 57.0683C429.427 57.3855 431.675 57.7433 432.158 57.8613C432.64 57.9812 434.928 60.2828 437.255 63.0196C441.869 68.3366 442.794 69.1702 444.198 69.1702C444.72 69.1702 445.804 69.5281 446.606 69.9632C448.413 70.9148 450.62 70.9555 454.674 70.2011L457.604 69.646L459.772 72.3442C460.977 73.8122 462.501 75.4388 463.224 75.9552C465.953 78.019 466.797 79.0905 466.797 80.6765C466.797 82.423 467.841 83.9297 469.607 84.6434C470.29 84.9219 470.812 85.4384 470.812 85.8349C470.812 87.4615 473.22 89.4053 476.03 90.001C476.794 90.1596 477.837 90.7166 478.318 91.2311C478.8 91.7475 479.684 92.264 480.326 92.3819C480.928 92.5405 482.051 92.8964 482.775 93.2136C483.498 93.5308 484.782 93.7707 485.626 93.7707C487.111 93.7707 487.19 93.85 487.432 95.2387C487.552 96.0723 487.674 99.0876 487.674 101.985C487.674 108.174 488.156 111.072 489.32 111.35C490.003 111.549 490.082 111.946 490.082 115.278C490.082 119.207 490.885 121.429 492.451 121.825C492.852 121.905 493.534 122.738 493.975 123.651C497.107 130.119 498.751 132.579 500.96 134.047C502.124 134.802 502.524 135.318 502.524 136.152C502.524 136.747 502.685 137.422 502.845 137.66C503.246 138.295 505.574 139.407 506.458 139.407C506.861 139.407 507.743 139.883 508.387 140.438C509.029 140.993 510.354 141.826 511.317 142.264C512.28 142.701 513.123 143.376 513.243 143.732C513.483 144.606 515.412 145.757 516.655 145.757C517.417 145.757 518.059 146.352 519.425 148.217C520.388 149.526 522.837 151.987 524.804 153.613C526.811 155.24 528.616 157.066 528.898 157.621C529.14 158.216 530.063 159.327 530.945 160.12L532.509 161.508L529.62 165.398C526.931 168.968 525.806 171.191 525.806 172.899C525.806 173.295 526.369 174.922 527.011 176.589C527.693 178.216 528.336 180.517 528.455 181.709C528.697 183.732 528.657 183.97 527.573 185.082C525.846 186.869 525.968 190.002 527.895 194.644C528.697 196.549 529.179 198.135 529.018 198.215C528.858 198.294 529.018 200.874 529.419 203.928C530.101 209.086 530.101 209.721 529.541 211.667C528.791 214.258 529.206 217.102 530.784 220.198C533.714 226.07 534.115 227.658 533.273 230.198C532.308 232.975 532.993 234.563 535.602 235.753C536.606 236.228 537.569 236.625 537.73 236.625C537.931 236.625 538.532 237.139 539.175 237.776C539.776 238.41 541.022 239.203 541.985 239.522C542.907 239.799 543.631 240.236 543.59 240.435C542.907 243.688 542.145 245.315 541.101 245.752C540.459 245.99 539.496 246.706 538.933 247.261C536.925 249.404 537.608 251.744 540.78 253.529C542.627 254.562 542.867 254.879 542.987 256.148C543.147 257.815 544.633 259.641 545.836 259.641C546.277 259.641 547.12 260.237 547.683 260.991C548.284 261.746 549.609 262.935 550.692 263.61C552.86 264.999 552.861 264.96 551.816 269.761C551.253 272.38 550.812 273.134 549.849 273.134C548.886 273.134 548.284 274.523 548.284 276.507C548.284 277.221 547.923 278.571 547.482 279.522C546.919 280.832 546.76 281.745 546.919 283.251C547.12 284.719 546.878 286.425 546.077 289.599C544.793 294.678 544.551 300.154 545.435 303.804C546.159 306.622 547.161 307.494 551.497 309.041C554.348 310.034 557.918 311.819 557.918 312.256C557.918 312.335 557.276 313.683 556.512 315.192C553.1 321.938 553.1 325.191 556.512 329.636C557.435 330.866 557.516 331.183 557.154 332.533C556.955 333.367 556.833 338.326 556.874 343.962C556.955 353.208 557.034 354.003 557.878 355.747C558.882 357.89 560.446 359.834 561.69 360.509C562.131 360.787 563.535 361.105 564.74 361.263C565.945 361.422 569.396 362.255 572.366 363.128L577.786 364.716L579.913 367.017C581.078 368.327 582.683 370.271 583.445 371.383L584.849 373.406L584.167 377.295C583.644 380.431 583.604 381.582 583.925 383.129C584.488 385.471 584.167 387.216 581.797 395.151C579.95 401.261 579.629 403.762 579.428 412.57C579.349 415.706 579.469 416.181 580.231 416.936C581.556 418.245 583.722 421.539 584.486 423.444C585.087 425.03 585.087 425.189 584.486 425.388C581.596 426.342 580.513 427.135 580.031 428.682C579.631 430.111 579.631 430.388 580.393 431.38C580.875 432.014 581.799 432.689 582.521 432.966C584.207 433.521 588.221 434.237 589.867 434.237C590.87 434.237 591.352 434.475 591.874 435.349C592.236 435.983 592.998 436.776 593.52 437.093L594.524 437.689L592.195 439.515C588.783 442.095 588.06 442.848 587.78 444.078C587.418 445.824 586.335 448.165 584.811 450.505C584.049 451.735 582.964 453.679 582.403 454.83L581.439 456.893L572.891 456.814L564.342 456.694L563.098 457.845C562.415 458.52 561.572 459.512 561.212 460.147C560.85 460.74 559.767 461.615 558.804 462.05C557.68 462.607 556.837 463.359 556.435 464.193C555.711 465.7 554.508 465.978 548.689 465.978H545.157L544.635 468.042C544.072 470.502 544.072 470.384 544.433 472.763L544.714 474.589L542.265 475.105C540.859 475.382 539.134 476.097 538.252 476.732C537.37 477.366 536.326 477.883 535.885 477.883C535.482 477.883 534.921 478.161 534.641 478.478C534.32 478.834 533.436 479.074 532.272 479.074C531.268 479.074 529.542 479.391 528.5 479.747L526.574 480.422L524.166 478.003C522.601 476.415 520.835 475.105 519.108 474.274C516.781 473.161 516.257 473.043 514.009 473.241C512.684 473.361 509.514 474.115 507.025 474.867C504.497 475.662 502.008 476.297 501.447 476.297C500.925 476.297 499.039 475.939 497.273 475.504C495.507 475.028 493.902 474.79 493.701 474.908C493.5 475.028 492.498 476.455 491.494 478.082C490.21 480.105 489.366 481.059 488.844 481.059C488.403 481.059 488.082 481.335 488.082 481.732C488.082 482.089 487.44 482.962 486.676 483.677C485.835 484.432 485.272 485.304 485.272 485.859C485.231 486.496 484.79 487.089 483.947 487.606C483.223 488.043 482.342 489.074 481.939 489.869C481.537 490.702 481.017 491.377 480.815 491.377C480.614 491.377 480.454 491.733 480.454 492.211C480.454 492.766 480.053 493.162 479.249 493.48C478.607 493.718 478.044 494.155 478.044 494.472C478.044 495.029 475.756 494.948 467.609 494.116C461.99 493.52 461.188 493.242 459.501 491.219C457.414 488.797 455.167 487.766 452.155 487.925C448.183 488.163 447.258 489.076 446.335 493.559C446.094 494.868 445.773 496.257 445.693 496.615C445.413 497.607 443.365 497.528 441.96 496.497C439.953 495.029 438.187 494.87 432.046 495.623C428.955 495.981 426.147 496.178 425.785 496.019C425.423 495.899 424.741 494.669 424.3 493.242C422.534 488.004 420.486 486.219 416.232 486.219C415.027 486.219 414.145 486.022 413.944 485.702C413.383 484.83 411.697 483.838 410.652 483.838C410.132 483.838 409.088 484.196 408.364 484.672C407.48 485.188 406.438 485.465 405.475 485.385C402.786 485.227 402.103 485.426 401.02 486.536C400.419 487.25 399.336 487.807 398.37 487.965C396.643 488.283 393.353 490.029 393.353 490.625C393.353 490.822 392.431 490.983 391.307 490.983C389.46 490.983 389.06 490.824 387.253 489.197C386.168 488.246 384.644 487.254 383.841 487.054C383.039 486.817 379.265 486.776 374.689 486.896L366.943 487.134L366.3 486.142C365.337 484.712 364.415 479.753 364.453 476.5C364.573 471.063 364.614 471.262 362.687 470.152C361.765 469.595 359.395 468.843 357.469 468.446C354.419 467.812 353.858 467.574 353.214 466.541C352.773 465.906 352.411 465.073 352.411 464.676C352.411 464.319 352.251 464.001 352.009 464.001C351.808 464.001 351.609 463.843 351.609 463.644C351.609 463.444 352.33 463.208 353.214 463.048C354.098 462.93 354.819 462.613 354.819 462.413C354.819 462.175 355.301 462.017 355.943 462.017C357.428 462.017 358.593 461.145 359.395 459.477C360.198 457.81 360.198 456.462 359.436 453.605C358.873 451.422 358.873 451.265 359.838 449.24C360.401 448.089 360.842 446.58 360.842 445.867C360.842 445.192 361.123 444.36 361.444 444.002C362.246 443.207 362.167 442.215 360.881 435.233C359.838 429.519 359.798 429.361 359.276 430.591C358.995 431.305 358.674 431.862 358.554 431.862C357.953 431.862 353.496 428.013 353.175 427.22C352.974 426.703 352.814 424.839 352.814 423.133C352.814 421.427 352.572 419.323 352.251 418.491C351.93 417.657 351.568 416.031 351.407 414.88C351.288 413.69 351.005 412.46 350.847 412.102C349.603 409.602 348.798 407.499 348.798 406.706C348.798 406.19 348.437 405.356 348.036 404.842C347.514 404.167 347.152 402.737 346.912 400.279C346.392 395.596 345.588 394.01 343.141 392.66C341.735 391.867 341.174 391.351 341.174 390.716C341.174 388.415 339.688 387.067 336.439 386.51C335.395 386.312 334.913 386.471 333.95 387.343C332.625 388.535 332.464 389.407 332.946 393.215C333.226 395.596 333.226 395.676 332.103 396.389C329.855 397.898 321.266 396.944 307.098 393.73C303.806 392.976 303.365 392.778 302.802 391.745C301.437 389.086 298.508 388.452 292.687 389.564C289.958 390.078 289.756 390.078 289.395 389.365C289.153 388.968 288.391 388.531 287.67 388.411C286.666 388.214 286.263 387.856 285.703 386.587C285.26 385.516 284.658 384.881 283.855 384.603C283.173 384.365 282.049 383.293 281.006 381.825C279.763 380.079 278.999 379.406 278.117 379.206C277.475 379.086 276.591 378.57 276.19 378.056C275.306 376.943 273.059 375.913 271.574 375.913C270.852 375.913 270.369 375.555 269.928 374.721C269.044 373.015 267.199 372.182 264.829 372.458C263.746 372.617 262.903 372.537 262.903 372.34C262.903 371.586 257.162 370.158 254.354 370.197L251.584 370.236L249.658 367.617C248.575 366.188 246.888 364.443 245.884 363.809C244.319 362.816 244.037 362.42 244.037 361.308C244.037 359.047 243.074 357.817 240.264 356.507C238.177 355.556 237.453 354.921 236.128 353.016C234.161 350.159 234.082 350.159 225.933 351.469C222.562 352.064 219.591 352.502 219.311 352.502C219.071 352.502 217.866 351.192 216.622 349.604C212.849 344.724 212.128 344.249 207.752 343.177C203.016 341.986 202.575 341.748 201.089 339.725C198.722 336.51 198.2 333.812 198.119 324.725C198.039 316.552 197.917 315.559 196.513 314.409C196.151 314.13 195.871 313.534 195.871 313.059C195.871 311.233 194.987 309.25 193.463 307.703C192.339 306.552 191.858 305.718 191.858 304.925C191.858 300.877 189.85 298.895 182.264 295.363C181.021 294.808 180.618 294.371 180.779 293.934C180.899 293.616 180.738 290.601 180.377 287.228C179.775 281.395 179.775 281.077 180.496 280.124C180.897 279.569 181.419 279.093 181.701 279.093C182.464 279.093 182.825 274.807 182.183 272.983C180.939 269.571 178.048 268.776 170.062 269.809C168.658 269.968 168.416 269.85 166.89 268.182C166.006 267.229 164.482 266.039 163.519 265.564C161.832 264.769 161.753 264.651 161.753 262.983C161.753 260.643 160.909 258.738 158.942 256.636C157.457 255.009 157.337 254.769 157.337 252.508C157.337 250.404 157.217 249.969 156.294 249.135C155.25 248.183 154.97 248.063 152.842 247.588C151.036 247.191 150.755 245.723 150.674 235.842C150.633 228.581 150.513 226.596 149.952 225.128C149.591 224.175 149.109 221.558 148.869 219.374C148.067 211.717 147.786 210.328 146.862 209.613L145.98 208.978L146.421 199.296C146.742 192.391 147.063 188.9 147.585 187.115C148.268 184.734 148.268 184.614 147.544 183.424C147.063 182.631 146.701 180.846 146.461 178.225C146.181 174.773 145.539 171.678 144.655 169.376C144.494 168.98 144.655 168.781 145.177 168.781C145.577 168.781 147.544 167.988 149.511 166.996C151.598 165.965 153.685 165.21 154.447 165.21C156.896 165.21 158.542 163.94 158.542 162.036C158.542 161.561 159.385 160.766 160.95 159.853C163.72 158.187 165.807 155.965 167.774 152.592C169.017 150.449 169.379 150.132 170.944 149.735C174.677 148.784 177.005 146.917 177.005 144.855C177.005 144.101 177.286 143.267 177.568 142.989C178.251 142.474 179.255 139.616 179.615 137.117C179.895 135.529 180.096 135.291 185.154 131.521C190.933 127.276 192.579 125.808 193.101 124.419C193.703 122.872 193.504 120.332 192.459 116.683L191.496 113.191L192.459 112.834C193.183 112.557 193.583 111.961 193.904 110.691C194.266 109.182 194.546 108.826 195.629 108.509C197.395 107.992 200.366 107.397 203.977 106.842C206.667 106.445 207.149 106.246 207.99 105.136C208.752 104.105 208.913 103.43 208.913 101.128C208.913 98.7066 208.712 97.9542 207.348 95.2948C205.582 91.7243 202.853 88.6297 201.528 88.6297C201.047 88.6297 199.964 88.2719 199.08 87.8367C198.196 87.3996 197.153 87.0437 196.751 87.0437C196.349 87.0437 195.668 86.6878 195.306 86.2894C194.183 85.0593 192.496 84.5835 189.688 84.7421C188.243 84.7827 187.038 84.7421 187.038 84.6241C187.038 84.067 188.643 82.9975 190.088 82.599C192.295 82.0033 194.343 79.8603 194.183 78.313C194.101 77.3207 194.382 76.8449 195.948 75.4562C198.236 73.3132 198.759 71.6866 198.438 67.4798L198.157 64.4238H202.132C206.466 64.4238 208.515 63.7488 209.356 62.0835C209.636 61.569 209.957 57.7182 210.12 52.9582C210.441 44.2681 210.24 42.9974 208.515 41.2527C207.832 40.5777 207.832 40.3805 208.474 36.8874C208.836 34.8643 209.116 32.5626 209.116 31.729C209.116 30.0212 208.153 27.7215 207.108 27.0058C206.586 26.648 206.385 25.7351 206.186 23.2362C206.025 20.656 205.745 19.5845 204.861 18.1184C203.376 15.5789 200.687 13.08 196.794 10.5404C194.024 8.7552 193.382 8.11887 192.299 6.05707C191.616 4.78633 191.055 3.51753 191.055 3.31831C191.055 3.04173 200.488 2.92181 217.667 2.88313C232.277 2.84251 248.211 2.68391 253.068 2.52531C257.924 2.36671 267.597 2.28741 274.542 2.3261C286.302 2.36671 287.426 2.44601 290.797 3.27963L290.784 3.26222Z" stroke="black" stroke-width="1.98" stroke-linecap="round" stroke-linejoin="round"/>
</svg>
