<svg width="742" height="424" viewBox="0 0 742 424" fill="none" xmlns="http://www.w3.org/2000/svg">
<path d="M736.377 267.109L738.632 267.64L739.849 268.097L740.596 268.705L740.775 269.914L739.685 271.811L740.146 276.028L739.206 278.632L737.891 281.262L735.711 289.852L730.063 299.511L727.751 304.682L727.638 305.776L727.751 306.759L728.183 308.761L728.427 309.211L729.245 310.069L729.414 310.508L729.203 311.387L728.794 311.969L728.32 312.488L727.977 313.171L727.197 315.51L726.971 316.653L727.065 318.071L727.46 319.182L728.588 321.176L728.823 322.334L728.269 324.841L726.054 329.845L724.661 332.992L724.309 340.149L722.979 343.127L722.829 343.987L722.97 344.81L723.402 345.586L724.84 346.979L726.494 350.641L728.12 351.691L729.525 352.345L730.718 353.458L732.621 356.137L734.435 359.448L735.798 363.022L736.583 364.598L738.617 367.701L739.397 369.292L739.754 371.046L740.092 375.432L740.891 379.469L741.004 381.395L740.863 383.326L740.487 385.351L738.965 389.821L734.877 397.883L733.554 402.238L732.889 404.427L732.828 405.461L733.11 406.732L732.377 410.889L729.661 415.79L726.236 419.425L723.403 419.761L722.106 418.502L719.174 416.729L717.882 415.528L717.313 414.557L716.721 412.784L716.294 411.955L716.064 412.008L713.874 410.203L713.794 409.804L712.182 410.208L709.41 412.559L707.85 412.575L706.168 411.699L704.627 411.143L703.462 411.605L702.851 413.756L702.193 415.304L700.859 415.986L699.346 415.792L698.134 414.716L696.645 413.908L694.686 414.59L693.695 415.353L691.444 417.087L688.08 418.597L684.904 417.716L678.382 413.991L675.591 413.461L672.575 413.629L669.643 414.474L667.115 415.99L666.072 417.448L664.371 421.103L663.262 422.073L662.031 421.848L658.206 420.128L657.013 419.389L656.195 418.062L655.57 416.494L654.63 415.545L651.844 416.411L646.986 416.957L644.374 415.887L642.283 413.112L640.775 409.706L639.864 406.735H639.845L638.802 401.715L638.75 399.997L638.468 398.064L637.43 398.106L636.114 399.204L633.365 402.082L632.204 402.964L628.813 404.151L626.265 405.043L623.432 406.728L622.497 409.012L620.74 411.022L618.513 412.497L616.201 413.169L615.365 413.012L612.151 411.747L610.906 411.931L610.225 412.939L609.624 414.14L608.67 414.89L606.997 414.518L600.645 410.651L594.513 407.838L592.699 406.736H592.68L591.458 405.292L590.213 404.168L588.785 403.386L587.018 402.966L584.232 401.837L578.669 398.811L575.944 397.818H575.141L573.172 398.075L572.519 397.986L571.885 397.272L571.847 395.832L571.189 395.133L569.648 394.828L567.708 395.128L564.259 396.316L562.234 397.619L561.595 397.813L560.641 397.634L560.087 397.208L559.65 396.73L559.044 396.394L557.667 395.984L557.094 395.912L556.952 395.894L554.885 396.02L554.321 395.789L553.851 395.363L547.578 391.426L544.82 390.511L541.578 391.536L539.435 391.773L537.847 392.703L531.635 398.089L529.671 399.25L528.196 399.492L527.566 398.925L527.397 398.132L527.378 397.239L527.204 396.383L526.485 395.742L525.606 395.979L524.69 396.352L523.872 396.131L518.967 392.226L517.68 390.638L516.712 387.052L517.384 379.519L516.675 376.04L515.397 374.487L508.269 370.496L507.287 370.154L500.093 373.003L496.113 375.162L492.833 376.946L491.188 377.462L489.52 376.957L487.946 376.873L486.433 378.241L485.17 379.778L484.976 380.014L483.505 381.114L480.352 382.077L478.98 382.114L470.584 379.883L467.925 377.094L467.911 373.578L467.592 370.498L464.031 369.002L461.973 369.223L456.861 371.24L454.549 371.029L454.394 369.66L454.502 368.112L452.937 367.317L451.786 367.159L450.658 366.843L448.562 365.747L447.791 363.903L447.274 361.774L445.954 359.829L443.91 358.654L439.381 357.13L437.248 355.833L437.234 355.823L436.266 354.225L434.852 353.903L433.358 354.441L432.127 355.39L431.103 355.406L420.151 352.41L418.972 351.582L418.446 349.387L419.254 347.055L420.541 344.717L421.438 342.505L421.931 338.445L421.734 334.531L420.874 330.716L419.394 327L417.087 323.579L414.404 321.681L388.252 316.862L386.279 315.587L384.569 313.142L383.672 311.226L382.446 310.278L379.693 310.723L378.838 310.458L377.861 307.964L377.011 307.021L374.826 306.142L373.849 305.562L372.994 304.685L372.595 302.807L370.993 302.439L369.179 303.191L364.57 308.911L362.639 310.235L359.745 310.346L356.118 309.695L354.943 309.298L354.854 309.324L352.838 309.922L348.623 310.218L346.856 310.927L347.641 312.563L350.23 315.495L350.455 316.453L350.817 317.495L350.794 318.331L349.897 318.675L349.371 319.072L348.723 320.04L348.608 319.923L348.121 319.427L343.939 317.903L331.337 311.108L324.703 308.614L314.751 307.269L306.209 307.195L303.841 308.042L303.38 309.038L303.192 310.287L303.371 311.478L304.748 313.368L304.621 314.601L304.001 315.887L302.037 318.824L300.51 320.384L298.739 321.384L296.7 321.485L294.614 320.75L293.698 319.729L293.125 318.29L292.077 316.338L290.954 315.052L286.443 311.22L283.093 309.886L271.972 309.971L266.216 308.544L262.044 306.182L259.77 305.446L248.484 304.686L246.445 302.307L245.458 298.415L244.584 290.741L243.475 286.792L241.896 284.224L241.369 284.013L239.392 283.223L227.937 286.194L220.166 287.096L216.642 285.992L211.732 280.977L204.684 277.436L193.83 268.411L189.864 266.838L188.313 265.937L186.612 264.116L184.789 262.558L184.662 262.515L182.571 261.813L177.905 261.345L175.218 262.535L171.553 266.881L169.472 268.326L166.968 268.132L164.44 266.62L161.922 264.722L157.374 262.09L153.761 258.195L151.811 256.581L149.673 255.799L145.092 254.724L143.302 253.33L143.279 253.319L142.104 251.425L140.262 250.116L132.218 245.953L130.832 244.832L130.451 243.871L130.352 242.795L129.924 241.314L128.745 239.42L127.115 237.643L125.179 236.239L123.102 235.496L121.711 235.688L121.124 236.634L120.743 237.91L119.911 239.117L118.6 239.786L117.087 240.036L116.1 239.572L116.391 238.107L114.906 237.739L114.333 236.945L114.695 236.1L116.076 235.535L114.84 233.046L109.563 226.938L108.327 224.063L106.476 217.92L104.597 215.523L102.473 214.394L93.447 212.654L89.205 211.836L88.547 210.717L88.378 209.432L88.058 208.323L86.987 207.708L85.577 208.189L83.82 208.146L82.016 207.783L80.555 207.302L78.864 206.068L78.427 204.614L78.291 203.059L77.553 201.509L76.256 200.932L72.53 200.921L70.839 200.595L69.317 199.659L65.85 196.014L64.356 195.008L61.509 194.198L59.949 193.452L59 192.248L57.196 188.788L56.04 187.948L52.666 187.335L51.106 186.8L49.49 185.962L48.879 185.135L48.926 184.169L49.076 183.269L48.785 182.656L46.84 182.593L45.308 182.543L43.485 183.569L42.583 184.985L42.339 186.765L43.11 193.356L42.659 194.723L40.874 193.749L37.031 189.093L35.377 188.106L33.554 188.012L31.806 188.488L30.049 188.74L28.226 187.988L27.192 186.679L24.711 181.544L24.016 180.955L22.362 180.548L21.62 180.189L20.925 179.415L19.976 177.752L19.459 177.082L17.927 176.125L14.723 175.57L12.985 174.948L11.669 173.908L8.634 169.834L5.693 168.094L4.892 167.931L3.231 167.593L1.558 166.26L1 162.04L1.075 159.95L1.329 158.066L1.93 156.313L3.058 154.619L4.468 153.494L5.99 152.71L7.287 151.692L8.058 149.893V149.874L7.767 146.46L8.528 141.822L10.304 137.867L13.114 136.498L14.664 136.71L16.562 136.726L18.31 136.215L19.438 134.838L19.203 133.232L17.681 128.876L18.141 127.363L19.71 127.156L20.856 128.06L21.721 128.262L23.591 121.424L23.958 119.003L23.714 117.039L23.047 116.46L22.211 116.5L21.431 116.363L20.933 115.283L20.266 111.068L18.34 107.655L17.682 105.905L18.039 104.052L19.007 103.313L21.657 102.442L22.202 101.484L22.456 100.138L23.076 99.455L23.894 98.867L24.721 97.79L24.749 97.776L26.572 96.378L27.352 95.574L28 94.632L28.038 94.1L27.803 93.517L27.671 92.874L28 92.15L28.498 91.745L29.626 91.129L30.143 90.74L32.192 88.428L33.273 86.269L33.414 83.969L32.578 81.236L31.338 78.435L30.473 75.801L30.464 73.142L31.798 70.247L34.185 68.293L39.607 66.826L41.543 65.196L46.195 59.298L48.215 56.02L49.427 52.242L50.198 50.442L51.551 49.677L54.831 49.254L56.57 48.701L57.726 47.952L60.094 45.695L63.336 43.465L64.238 42.472L66.963 38.081L68.232 36.745L73.701 32.558L75.505 29.798L74.302 26.994L75.571 25.744L77.164 23.825L78.616 22.749L79.504 24.043L80.383 25.902L81.976 26.299L88.098 24.206L88.812 24.163L89.766 25.011L90.941 26.761L91.984 28.815L93.144 32.232L95.23 35.708L95.921 37.31L96.853 41.936L96.889 42.114L98.064 43.085L100.503 42.472L102.641 42.423L106.86 44.393L108.89 44.002L109.839 42.504L109.698 39.562L110.953 38.688L112.551 38.189L113.434 37.516L113.534 37.295L113.908 36.468L114.265 34.844L114.133 34.127L113.391 32.492L113.447 31.721L114.424 31.009L115.838 30.906L117.318 30.987L118.488 30.808L119.93 29.781L121.001 28.341L121.659 26.624L122.072 23.341L123.214 21.411L123.529 20.411L123.444 19.508L122.861 17.816L122.725 16.891L122.636 13.207L122.956 11.536L123.919 10.023L124.384 8.564L124.168 6.898L124.408 5.53101L126.217 4.97501L127.918 5.678L131.254 8.96101L133.096 9.957L135.487 10.327L136.516 9.951L137.54 5.90601L137.982 5.04L138.659 4.61L140.388 4.3L141.61 3.734L142.089 2.841L142.371 1.926L142.963 1.278L145.002 1L146.975 1.62701L158.035 6.692L160.004 7.204L162.048 6.861L163.984 6.137L165.948 5.82101L169.838 7.525L172.958 7.275L174.753 7.634L175.561 8.222L176.651 9.774L177.281 10.34L178.174 10.492L179.048 10.182L179.931 9.73L180.791 9.442L184.63 9.186L186.754 9.398L188.168 10.149L188.572 11.766L187.562 17.811L187.825 20.601L188.816 22.428L190.484 23.613L192.862 24.472L194.253 25.804L193.825 27.815L191.697 31.798L191.8 33.227L192.392 35.437L193.238 37.571L194.084 38.755L195.94 39.037L197.57 38.407L199.252 38.098L203.349 40.698L205.191 40.986L207.056 40.997L209.091 41.524L209.843 42.164L210.928 43.895L211.675 44.503L213.169 44.742L214.569 44.525L215.96 44.536L217.356 45.431L218.545 46.999L220 48.455L221.649 49.681L223.355 50.581L227.758 51.958L229.356 52.918L236.329 61.664L237.908 62.796L238.866 62.763L240.736 62.167L241.676 62.232L242.738 62.931L242.757 63.787L242.344 64.821L242.081 66.077L242.917 67.856L248.424 72.194L250.115 74.829L251.111 75.776L252.201 76.363L253.301 76.734L254.245 77.345L254.865 78.619L256.157 80.52L258.055 79.85L260.113 78.29L261.898 77.525L262.753 77.923L264.078 79.489L264.825 80.062L265.751 80.192L267.771 79.884L268.823 80.079L274.005 84.636L274.733 85.701L275.969 88.235L276.918 88.994L278.248 88.905L278.793 87.781L279.056 86.314L279.502 85.193L280.132 84.928L282.533 84.328L284.657 84.096L285.752 84.145L286.795 84.553L288.04 85.512L288.369 86.055L288.698 87.441L288.942 87.917L289.647 88.355L291.188 88.887L291.865 89.292L293.979 91.461L294.731 92.836L294.956 94.399L294.646 95.268L294.11 95.84L293.631 96.542L293.49 97.778L295.012 100.048L300.834 98.793L303.31 101.33L303.545 103.208L303.31 104.751L303.474 106.067L306.223 108.348L306.42 109.502L306.317 110.777L306.759 112.235L307.84 113.254L309 113.836L309.944 114.612L310.766 117.554L311.767 118.438L314.276 119.464L315.874 120.587L316.748 122.163L317.613 126.075L317.801 128.333L318.027 129.385L318.633 130.23L319.746 130.685L322.058 130.997L323.026 131.812L324.097 132.463L327.79 133.16L329.139 133.233L330.569 132.644L330.661 132.606L331.333 131.145L331.728 129.321L332.395 127.609L334.251 125.795L336.455 125.022L338.786 124.931L341.084 125.162L343.137 124.901L347.197 122.895L349.358 122.249L350.016 121.912L350.791 120.522L351.341 119.975L354.155 119.205L355.861 118.957L356.989 118.952L358.117 119.243L358.963 119.695L359.508 120.495L359.743 121.879L360.871 121.276L362.022 120.964L363.079 121.206L363.897 122.294L365.142 123.56L366.763 123.275L368.492 122.586L370.099 122.624L370.954 123.626L371.518 126.447L372.157 127.575L373.397 127.871L374.849 127.661L376.075 127.831L376.639 129.3L376.052 131.028L374.826 132.661L373.966 134.375L374.488 136.368L376.499 138.363L377.053 139.094L377.372 140.086L377.894 143.365L379.961 144.623L381.996 145.289L382.983 146.632L380.737 155.5L382.425 158.258L383.321 159.722L387.944 162.451L394.127 163.744L395.245 164.216L396.18 165.037L397.679 167.579L399.61 169.247L400.376 170.191L401.748 174.946L402.932 176.964L405.197 177.647L407.274 177.588L408.825 178.258L410.31 179.161L412.114 179.815L417.151 180.664L417.969 181.135L418.843 182.956L419.463 183.711L421.249 184.375L422.964 184.731L424.04 185.58L423.565 190.382L424.754 191.238L428.917 191.441L430.646 192.348L433.024 195.093L434.603 196.363L435.768 196.844L436.858 196.994L441.89 196.673L442.994 196.866L444.488 197.358L445.475 197.497L446.363 197.208L447.087 196.555L448.224 194.121L448.769 193.498L451.48 192.019L452.326 191.789L453.092 191.414L453.698 190.574L454.572 188.781L455.164 187.895L455.784 187.309L457.861 186.83L459.689 187.558L463.039 189.924L467.503 191.356L468.142 192.579L467.136 197.76L466.845 198.613L466.291 199.552L465.629 200.06L464.064 200.715L463.524 201.466L463.383 202.07L463.374 204.01L462.819 205.4L460.475 206.824L459.92 207.842L460.658 213.494V215.507L460.31 218.588L460.16 219.922L460.813 221.438L462.814 222.663L465.065 222.692L466.921 221.774L468.65 221.417L471.573 224.106L473.227 224.786L474.998 225.175L476.469 225.276L477.7 224.977L480.237 223.817L481.289 223.641L482.482 224.196L483.309 225.095L484.268 225.863L485.833 226.026L487.219 225.375L489.361 223.02L490.62 222.23L492.105 222.166L493.477 222.673L496.118 224.02L498.105 223.657L500.205 223.625L502.301 223.887L504.265 224.405L506.102 225.664L507.324 226.939L508.494 226.907L510.975 223.114L511.689 222.514L513.615 221.807L514.245 221.204L514.348 220.302L514.329 219.309L514.616 218.466L515.871 218.226L516.332 220.476L516.492 225.054L517.93 227.71L519.65 229.963L521.661 231.85L524.039 233.412L528.052 235.23L529.997 236.421L531.369 238.028L531.703 239.102L532.131 241.372L533.71 243.5L533.888 244.467L533.775 245.46L533.831 246.703L534.545 249.091L535.513 250.491L538.699 253.344L539.846 255.249L539.818 257.241L539.414 259.307L539.358 261.424L540.401 263.981L541.998 264.619L546.199 264.13L548.468 264.374L548.757 264.326L549.403 264.219L550.672 263.629L553.538 260.742L554.055 260.335L553.999 259.258L553.539 258.54L552.938 257.923L552.487 257.138L552.44 256.002L552.708 255.114L552.717 254.279L551.923 253.343V253.327H551.914L550.993 252.683L550.852 252.084L551.026 251.427V250.57L551.425 248.829L551.495 248.281L551.208 247.474L550.174 245.927L550.042 244.891L557.973 236.668L559.796 237.03L560.707 239.039L560.81 241.599L560.227 243.655L559.452 245.399L559.654 246.365L560.326 247.145L560.989 248.306L561.614 251.297L562.253 252.532L563.592 253.314L563.606 253.319L563.648 253.34L565.48 253.872L567.341 254.069L569.075 254.476L570.583 255.641L572.726 258.378L573.591 259.006L574.484 259.176L575.217 258.878L575.95 258.479L576.796 258.346L577.614 258.771L580.682 261.34L582.463 262.068L583.694 261.972L587.025 260.249L588.975 259.191L590.206 257.694L590.779 255.738L590.751 253.34L590.728 251.536L591.282 250.355L592.067 249.328L592.744 247.939L592.96 246.395L593.007 244.742L593.27 243.216L594.125 242.068L595.577 241.815L596.813 242.699L598.063 243.887L599.468 244.529L600.817 244.199L602.847 242.375L603.984 241.792L605.628 241.907L607.409 242.626L609.049 243.707L610.327 244.876L610.712 246.119L610.369 249.199L611.06 250.586L613.804 251.555L620.213 251.278L622.731 253.327V253.343L623.525 255.822L624.996 257.516L626.965 258.449L629.296 258.657L632.012 258.21L633.091 257.877L633.694 257.691L635.235 257.792L637.495 259.172L640.356 262.224L645.313 268.791L648.884 270.722L651.266 270.855L655.894 270.318L661.133 271.72L663.262 270.434L665.254 268.606L667.801 267.692L669.756 268.292L669.333 269.689L668.281 271.41V272.966L669.888 272.918L677.96 270.626L681.503 269.752L683.054 269.587L684.849 270.092L685.272 270.586L685.62 271.409L686.099 272.254L686.851 272.854L688.364 272.896L691.193 271.361L692.555 270.939L694.726 271.327L696.415 271.998L698.409 272.79L700.805 272.572L703.493 271.276L705.626 269.316L707.336 266.845L708.746 264.017L709.813 262.411L710.795 262.23L712.562 263.23L719.694 263.57L720.662 263.878L722.588 264.861L723.683 265.09L724.9 264.872L727.292 263.894L728.368 263.772L730.445 264.474L734.349 266.653L736.377 267.109Z" stroke="black" stroke-width="2" stroke-linecap="round" stroke-linejoin="round"/>
</svg>
