<svg width="743" height="500" viewBox="0 0 743 500" fill="none" xmlns="http://www.w3.org/2000/svg">
<path d="M737.336 234.074C736.423 233.375 735.139 232.825 734.946 231.56C734.807 230.555 734.737 229.536 734.502 228.545C734.187 227.154 733.597 225.833 732.892 224.599C731.852 222.826 730.259 221.425 728.459 220.456C728.032 220.232 727.595 220.032 727.165 219.82C726.813 219.597 726.197 219.399 726.208 218.907C726.437 217.505 727.297 216.305 728 215.101C728.788 213.887 729.391 212.456 730.631 211.628C732.02 210.64 733.797 210.664 735.381 210.19C737.931 209.574 740.693 208.345 740.604 205.293C740.628 203.514 739.496 202.045 738.201 200.941C736.942 199.764 735.29 199.087 733.58 198.947C731.393 198.703 729.212 199.1 727.032 199.167C725.87 199.08 724.603 197.123 724.475 196.033C724.411 194.037 726.768 191.891 728.369 190.997C730.074 190.298 731.935 190.041 733.563 189.132C735.073 188.457 736.578 187.684 737.687 186.423C739.971 183.964 741.539 180.699 741.49 177.301C741.381 173.895 739.609 172.158 737.303 169.944C736.345 168.888 735.888 168.521 736.377 167.011C737.513 164.435 737.848 162.548 736.36 159.996C734.882 157.7 732.109 156.356 729.418 156.229C727.883 156.214 726.38 156.709 725.095 157.535C724.583 157.836 724.095 158.222 723.505 158.358C722.622 158.38 721.766 158.046 720.978 157.671C719.483 156.864 718.043 155.898 716.914 154.617C716.277 153.861 715.763 153.016 715.152 152.239C713.644 150.3 711.221 148.931 708.716 149.313C706.503 149.553 704.246 150.012 702.033 149.547C700.316 149.302 699.383 147.754 698.275 146.608C697.761 146.098 697.173 145.646 696.527 145.317C695.353 144.752 694.081 144.27 692.763 144.242C691.595 144.249 690.391 144.44 689.352 145C688.497 145.474 687.841 146.23 686.983 146.699C686.577 146.822 686.129 146.548 685.872 146.234C685.28 145.525 684.662 144.822 683.864 144.338C683.088 143.864 682.22 143.567 681.326 143.41C680.602 143.249 679.804 143.28 679.162 142.869C678.226 142.164 677.553 141.185 676.754 140.342C675.544 139.014 673.803 138.131 671.99 138.104C670.939 138.11 669.881 138.256 668.845 138.431C666.486 138.887 664.239 139.288 662.279 137.498C661.309 136.554 660.39 135.477 659.05 135.069C657.047 134.371 654.812 135.66 653.939 137.496C653.516 138.386 653.529 139.371 653.476 140.337C653.467 141.516 652.801 142.688 651.506 142.73C650.65 142.558 649.93 141.994 649.199 141.544C648.465 141.036 647.739 140.518 647.059 139.94C646.388 139.314 645.787 138.613 645.099 138.004C643.761 136.768 642.141 135.882 640.492 135.125C639.513 134.674 638.417 134.415 637.614 133.659C635.463 131.869 635.432 130.718 634.697 128.13C634.16 126.2 632.936 124.546 631.552 123.13C630.718 122.259 629.694 121.592 628.898 120.683C628.121 119.811 627.55 118.783 626.815 117.879C624.494 114.969 620.574 114.477 617.187 115.566C613.68 116.386 611.979 120.688 608.22 120.826C604.846 120.894 601.171 120.696 598.23 122.637C596.79 123.652 596.138 125.349 595.226 126.795C594.954 127.192 594.665 127.578 594.263 127.852C593.758 128.192 593.136 128.368 592.544 128.459C592.699 128.449 592.699 128.449 592.701 128.449C592.735 128.447 592.767 128.446 592.801 128.444C591.817 128.604 590.926 128.09 590.132 127.569C589.441 127.113 588.904 126.484 588.352 125.875C587.235 124.722 585.719 123.985 584.165 123.628C583.109 123.38 582.016 123.34 580.939 123.461C580.06 123.518 579.192 123.845 578.309 123.743C577.158 123.399 576.487 122.297 575.642 121.512C574.363 120.195 572.815 119.135 571.106 118.454C567.208 116.806 562.91 118.503 559.636 120.77C558.735 121.263 557.875 122.074 556.833 122.21C556.665 122.214 556.499 122.206 556.33 122.189L556.092 122.127C555.128 121.896 554.168 121.471 553.497 120.722C552.605 119.48 552.019 118.044 551.066 116.84C550.601 116.237 550.097 115.66 549.535 115.144C548.685 114.352 547.675 113.708 547.021 112.729C546.415 111.944 546.57 110.926 546.564 109.996C546.579 109.33 546.604 108.667 546.643 108.003C546.823 105.03 548.07 102.131 547.759 99.1346C547.341 95.4185 543.717 93.4887 542.046 90.4304C541.861 90.0504 541.693 89.6346 541.816 89.2074C541.967 88.5742 542.162 87.9561 542.341 87.3324C543.162 84.8184 543.194 82.7978 541.305 80.7564C540.086 79.4144 538.258 78.9267 536.576 78.4334C535.618 78.1858 534.646 77.942 533.815 77.3806C533.183 76.9439 532.807 76.2484 532.314 75.6738C531.526 74.6701 530.562 73.7741 529.414 73.1995C527.314 72.1202 524.664 72.0635 522.589 73.2316C521.653 73.7514 520.941 74.5718 520.067 75.1785C518.053 76.5621 516.147 74.8761 514.232 74.1881C512.473 73.4339 510.558 73.2373 508.66 73.2978C506.97 73.2865 505.233 73.4301 503.604 72.899C502.343 72.4151 501.041 71.6344 500.489 70.3435C500.255 69.1659 500.578 67.9467 500.642 66.7616C500.769 65.4385 500.559 64.0737 500.033 62.8508C499.767 62.1288 499.086 61.471 499.103 60.6809C499.374 59.2273 499.395 57.7473 499.083 56.2957C498.756 54.1938 497.828 52.1486 496.143 50.7972C495.111 49.9485 493.853 49.4476 492.743 48.7161C492.573 48.5611 492.276 48.4363 492.259 48.1849C492.325 47.805 492.509 47.444 492.741 47.1321C493.543 46.3193 494.682 45.9054 495.635 45.2911C497.62 44.1116 499.784 43.1117 501.359 41.3765C503.689 38.9722 504.071 35.1711 502.423 32.2791C501.869 31.2716 500.999 30.4721 499.945 30.0109C498.964 29.5648 497.882 29.3607 496.905 28.8957C495.272 27.9903 493.762 26.8316 492.452 25.5047C490.309 23.0702 491.518 20.2897 491.169 17.4129C490.823 14.1693 489.331 10.9598 486.666 8.99214C485.549 8.16613 484.3 7.56127 483.062 6.93941C481.772 6.31565 480.568 5.54446 479.319 4.85265C475.217 2.68273 471.541 3.39344 467.273 4.46895C466.248 4.71845 465.192 4.62205 464.217 4.22889C462.691 3.6694 461.13 3.17607 459.501 3.04753C457.803 2.8415 456.051 2.94357 454.467 3.63538C452.979 4.25347 451.541 5.01521 450.286 6.03401C449.602 6.56326 448.929 7.10763 448.256 7.652C447.456 8.26064 446.715 8.99403 445.784 9.39852C444.795 9.75388 443.736 9.56297 442.731 9.38529C441.251 9.07908 439.826 8.54416 438.58 7.67279C436.658 6.37613 435.227 4.45571 433.195 3.31216C431.49 2.34628 429.449 2.59578 427.596 2.89443C425.519 3.2857 423.33 3.75824 421.62 5.07191C420.731 5.81097 420.226 6.91294 419.943 8.01114C419.796 8.76721 419.746 9.54029 419.688 10.3096C419.578 11.1696 419.414 12.0259 419.412 12.8972C419.323 14.2128 419.425 15.5643 419.121 16.8515C418.179 18.8494 416.223 20.9305 413.923 21.1138C413.212 21.1308 412.488 21.1365 411.789 20.9872C411.517 20.8984 411.273 20.7566 411.072 20.5506C410.566 20.095 409.906 19.5582 409.195 19.5318C408.687 18.9836 408.196 18.4184 407.604 17.9572C407.069 17.5395 406.474 17.186 405.863 16.8912C405.358 16.6473 404.827 16.4678 404.302 16.2731C403.451 15.9574 402.678 15.4698 401.81 15.1938C400.85 14.8744 399.833 14.8819 398.833 14.9027C395.38 14.9046 391.811 15.1787 388.627 16.6171C387.761 17.0103 386.91 17.4412 386.088 17.9213C385.116 18.4544 384.219 19.1726 383.154 19.5091C382.741 19.5941 382.336 19.4316 381.943 19.3201C380.881 18.9231 379.911 18.3239 378.888 17.8419C376.442 16.6719 372.885 16.7815 370.475 18.0158C366.699 20.0988 368.721 25.0416 362.631 29.0204C360.418 30.3795 358.699 32.7894 357.681 35.19C357.03 36.6246 356.839 38.218 356.17 39.6413C355.972 40.0345 355.698 40.3785 355.312 40.5997C354.715 40.9985 354.138 41.4143 353.66 41.9549C352.719 43.0058 352.033 44.3384 351.968 45.7674C351.897 47.6746 352.889 49.3946 353.142 51.247C353.171 52.2961 352.904 53.3319 352.912 54.3809C352.921 55.3487 353.118 56.3127 353.46 57.2181C354.008 58.6376 354.821 59.9229 355.668 61.1799C355.891 61.5088 356.083 61.8547 356.21 62.2308C356.565 63.363 356.679 64.5784 356.524 65.756C356.195 66.9903 355.212 67.8881 354.435 68.8521C353.078 70.3831 352.282 72.4794 352.534 74.5321C352.617 75.1256 352.853 75.6927 352.783 76.3013C352.619 77.9023 351.902 79.3634 351.322 80.8434C350.286 83.2609 350.57 85.6784 351.269 88.147C351.715 89.644 352.32 91.0881 352.692 92.6059C353.237 94.8363 353.677 97.1027 353.891 99.3898C353.917 100.741 354.091 104.145 352.868 104.905C352.925 104.854 352.984 104.805 353.04 104.754C352.118 105.421 350.918 106.013 349.763 105.697C349.275 105.567 349.18 105.055 349.082 104.627C348.967 103.975 348.886 103.321 348.833 102.66C348.698 99.8321 349.042 97.0138 349.213 94.1975C349.328 92.381 349.373 90.5116 348.878 88.7424C348.759 88.3379 348.608 87.9296 348.375 87.5743C348.052 87.0016 347.425 86.4931 347.447 85.79C347.852 84.6275 348.496 83.5482 348.791 82.3423C349.044 81.3443 349.224 80.3236 349.345 79.301C349.865 74.844 347.118 73.965 348.396 72.8347C348.923 72.3905 349.753 72.4661 350.386 72.1883C352.303 71.6137 353.987 70.4361 353.333 68.2019C352.942 65.618 350.337 64.5047 348.362 63.2629C347.328 62.6221 346.491 61.798 346.343 60.5316C346.109 59.3275 345.825 58.0894 345.084 57.0839C344.209 55.9592 343.034 55.0368 341.707 54.5132C338.41 53.2846 334.753 52.9255 331.282 53.5058C329.859 53.6929 328.555 54.2921 327.239 54.827C325.073 55.585 323.087 53.4831 320.917 53.9783C319.437 54.1787 318.006 54.7627 316.944 55.8382C316.157 56.5868 315.501 57.4581 314.704 58.1972C313.855 58.9419 312.893 59.5695 311.825 59.9475C310.778 60.3236 309.664 60.4881 308.562 60.2821C308.029 60.1176 307.523 59.7377 307.234 59.2595L307.219 59.2821C306.844 58.1726 306.963 56.9648 306.725 55.8231C306.474 54.3942 306.062 52.9898 305.559 51.6307C304.879 49.922 304.056 48.2586 302.975 46.7673C301.801 45.0548 300.168 43.7808 298 43.9585C294.556 44.1248 293.609 45.5651 291.702 48.0753C291.275 48.5497 290.791 48.9675 290.26 49.3209C289.211 50.0089 288.031 50.4645 286.996 51.1714C285.965 51.8783 285.077 52.7648 284.155 53.6003C283.926 53.8101 283.68 53.9915 283.365 54.0369C282.331 54.2032 281.223 54.1163 280.255 53.7042C279.571 53.2922 279.127 52.5739 278.747 51.8897C278.142 50.5855 277.838 49.1017 276.866 47.9978C275.811 46.6936 273.978 46.6047 272.428 46.7371C270.676 46.8599 267.852 47.7596 266.856 45.7693C266.635 45.3062 266.423 44.8412 266.164 44.397C265.285 42.9454 263.55 42.0929 261.868 42.1969C260.924 42.2479 259.966 42.4936 259.136 42.9473C258.295 43.3971 257.704 44.2118 256.804 44.5577C255.424 44.8355 253.982 44.8299 252.668 45.4007C250.419 46.2948 248.219 48.0866 248.181 50.6951C246.835 51.0429 245.4 51.4285 244.009 51.1922C244.266 48.8276 245.194 46.1152 243.695 43.9868C242.849 42.8509 241.484 42.2876 240.189 41.8226C238.295 41.1119 236.339 40.5883 234.35 40.2178C233.226 39.9891 232.073 39.8927 230.978 39.5355C229.177 38.9987 229.347 38.0271 228.769 36.5585C227.688 34.1655 225.043 32.9161 222.588 32.4076C221.233 32.1657 219.845 32.2375 218.499 32.5135C216.437 32.9615 214.711 33.1618 212.929 31.8463C210.812 30.2774 208.659 28.5422 205.992 28.0716C204.404 27.7446 202.801 28.1358 201.204 28.1056C200.393 28.03 199.739 27.4762 199.21 26.8978C197.432 24.4821 196.847 23.6164 193.857 22.7942C192.825 22.4615 191.714 22.2668 190.801 21.6525C189.493 20.6167 187.928 20.0175 186.331 19.5941C183.711 18.7738 181.013 18.22 178.309 17.755C176.443 17.5206 174.562 17.3883 172.683 17.307C169.825 17.2409 166.939 17.4204 164.125 16.8175C158.518 15.8062 157.57 11.5306 150.937 13.2337C149.725 13.5342 148.635 14.1504 147.54 14.7269C146.79 15.1144 145.97 15.345 145.121 15.277C143.161 15.088 141.24 14.5776 139.263 14.5511C137.061 14.536 134.85 14.606 132.657 14.8139C131.243 14.9594 129.846 15.2429 128.429 15.3431C124.304 15.4981 119.328 14.4642 116.19 17.8438C112.893 21.318 114.419 24.3687 112.496 26.5594C111.194 27.9241 109.444 29.1471 107.612 29.6385C106.811 29.7954 105.992 29.7652 105.181 29.7236C103.272 29.6196 101.388 29.1206 99.7983 28.0281C98.6528 27.3023 97.857 26.153 96.687 25.465C95.7079 24.8961 94.5095 24.6107 93.383 24.7827C90.3701 25.2287 89.1377 27.7124 88.323 30.3568C87.7881 32.0183 87.7106 33.7686 87.8126 35.5C87.8542 37.3221 88.2153 39.1007 88.6519 40.8643C88.7634 41.2366 88.633 41.6014 88.4629 41.9322C88.1378 42.5465 87.7597 43.1287 87.3817 43.7128C86.8373 44.5539 86.2514 45.4102 85.9433 46.3722C85.69 47.1605 85.5822 47.9883 85.5633 48.8144C85.4632 50.9748 86.5614 53.0465 88.2096 54.4017C89.7085 55.6795 91.8898 56.2352 92.8197 58.1046C93.4454 59.2992 93.1902 60.6979 93.2847 61.9946C93.315 62.8754 93.3792 63.7562 93.451 64.6332C93.6684 68.0412 94.6494 71.4889 96.6492 74.2883C97.0915 74.8988 97.6378 75.4318 98.2729 75.8401C99.1405 76.3958 100.152 76.6396 101.078 77.0706C101.344 77.2313 101.834 77.4184 101.732 77.8115C101.091 78.0629 100.367 77.976 99.6981 78.1348C98.8154 78.2992 97.9345 78.4977 97.1161 78.8738C94.3659 80.0911 92.5456 83.208 92.9407 86.2058C93.1373 87.3399 93.4359 88.4608 93.9198 89.5079C94.6437 91.1505 95.7306 92.6116 96.2806 94.3317C96.6814 95.2862 96.5963 96.3258 96.2769 97.2879C95.8327 98.5109 94.9915 99.5127 94.2279 100.547C93.1618 102.078 91.9068 103.556 90.1886 104.367C89.3191 104.875 88.3154 104.815 87.3477 104.739C86.4631 104.68 85.5803 104.548 84.692 104.563C82.0779 104.597 79.4259 105.729 78.4695 108.321C78.1539 109.05 77.893 109.816 77.6983 110.587C77.5206 111.307 77.3921 112.06 76.929 112.663C75.0842 115.468 72.5589 116.462 69.5838 117.67C67.7276 118.467 66.0643 119.62 64.3839 120.728C61.3218 122.737 58.3183 124.973 56.122 127.945C54.8404 129.75 53.7498 131.687 52.3511 133.409C51.3512 134.638 50.3021 135.825 49.3854 137.118C47.7182 139.293 45.8772 141.346 43.8528 143.195C42.4919 144.37 41.2368 145.081 39.6982 146.191C35.9103 149.06 32.6913 151.438 34.5418 156.69C34.8216 157.528 35.3055 158.28 35.5965 159.112C36.0067 160.201 36.0956 161.34 35.9632 162.49C35.7459 165.166 36.0086 167.88 35.4548 170.525C35.1637 172.371 34.1014 174.071 34.2696 175.982C34.3887 177.339 35.0314 178.643 36.0407 179.558C36.8724 180.399 38.4942 181.333 38.4772 182.624C38.3694 183.745 37.5586 184.659 36.6947 185.312C35.6155 186.194 34.0447 185.673 33.0788 184.816C32.4211 184.217 31.9372 183.463 31.3966 182.765C30.4212 181.382 29.0641 180.191 27.259 180.399C26.3007 180.452 25.3518 180.586 24.4086 180.764C23.3331 180.97 22.2179 181.183 21.2577 181.739C18.5491 183.376 17.5397 186.587 16.846 189.5C16.4982 191.086 16.1712 192.679 15.8593 194.273C15.4038 197.335 15.16 198.826 12.7027 200.973C11.7898 201.726 10.8277 202.421 9.85803 203.1C9.13976 203.582 8.34967 203.949 7.6503 204.461C6.73735 205.143 5.96237 205.992 5.20252 206.837C4.51639 207.6 3.85105 208.387 3.31991 209.269C2.19336 211.248 1.36736 213.541 1.50345 215.845C1.59796 217.588 2.42586 219.265 3.83593 220.312C4.54096 220.873 5.35374 221.28 6.04176 221.864C7.28361 222.873 7.83365 224.421 8.39881 225.867C9.22104 228.555 11.0507 230.937 13.4758 232.371C15.0598 233.316 16.9915 233.609 18.4243 234.817C19.4488 235.736 19.7966 237.127 20.3296 238.346C20.9534 239.921 21.8814 241.639 23.6298 242.125C24.9511 242.544 26.3328 242.113 27.6767 242.23C28.4025 242.361 28.7409 242.799 28.7277 243.533C28.7749 244.5 28.601 245.455 28.5008 246.415C28.3515 247.621 28.291 248.869 28.5821 250.058C29.0339 252.158 30.6859 253.479 32.8501 253.18C34.2432 253.002 35.6948 252.742 36.9178 252.02C38.0821 251.337 38.8325 250.205 39.7587 249.262C39.8343 249.184 39.9402 249.165 40.0422 249.141C40.8739 248.999 41.7245 248.946 42.5316 248.687C43.0968 248.506 43.6355 248.258 44.1175 247.908C44.7261 247.474 45.2194 246.886 45.8697 246.51C46.8166 246.234 47.8562 246.833 48.2362 247.716C48.7144 248.774 49.0848 249.88 49.6595 250.893C51.045 253.5 53.7025 255.545 56.706 255.726C57.6284 255.772 58.5489 255.647 59.4279 255.367C60.2974 255.101 61.1177 254.645 62.0344 254.56C63.5485 254.517 65.0436 254.821 66.4612 255.337C69.6348 256.599 72.7309 258.32 76.2391 258.355C77.3921 258.418 78.547 258.32 79.7 258.346C81.5146 258.527 82.8585 259.968 84.4765 260.677C85.7297 261.321 87.1227 261.607 88.512 261.771C89.8087 261.935 91.128 262.041 92.4209 261.79C93.6476 261.582 94.8403 261.177 95.9688 260.656C96.876 260.236 97.7058 259.662 98.6434 259.308C99.7075 258.887 100.93 259.1 101.851 259.762C102.486 260.215 103.131 260.686 103.573 261.342C104.45 262.675 104.535 264.334 105.174 265.772C106.389 268.78 109.208 270.645 111.827 272.335C112.61 272.813 113.075 273.586 113.466 274.392C114.466 276.365 116.513 277.696 118.685 277.998C122.271 278.259 125.042 277.176 126.259 273.603C126.624 272.611 126.692 271.547 126.99 270.536C127.183 270.014 127.548 269.589 127.9 269.167C128.954 267.861 130.648 267.419 132.22 267.069C133.515 266.835 134.835 266.75 136.15 266.812C137.169 266.893 138.15 267.171 139.142 267.4C141.135 267.823 143.202 267.587 145.2 267.322C147.115 267.009 148.941 266.319 150.767 265.682C152.122 265.13 153.385 264.616 154.867 265.022C156.487 265.391 158.053 266.039 159.728 266.117C163.117 266.236 166.901 266.513 169.746 264.323C171.738 262.765 173.472 260.905 174.893 258.815C175.375 258.121 175.744 257.363 176.199 256.652C177.046 255.503 178.074 254.439 179.356 253.783C180.734 253.122 182.333 253.088 183.667 252.313C184.558 251.861 185.232 251.099 186.083 250.591C188.153 249.795 190.141 248.812 192.022 247.632C194.041 246.379 195.865 244.017 195.022 241.54C194.94 240.987 194.494 240.259 194.918 239.777C195.073 239.578 195.263 239.444 195.524 239.461C195.993 239.448 196.458 239.457 196.925 239.482C198.101 239.556 199.28 239.917 200.021 240.886C201.006 242.098 202.047 243.359 203.552 243.933C204.242 244.219 205.019 244.257 205.754 244.302C207.094 244.393 208.438 244.357 209.778 244.283C211.33 244.179 212.954 244.047 214.341 243.281C215.042 242.901 215.63 242.334 216.352 241.988C217.103 241.798 217.902 242.081 218.637 242.255C219.834 242.627 221.087 242.898 222.346 242.763C224.62 242.607 226.423 241.074 228.224 239.837C228.563 239.635 228.899 239.41 229.294 239.346C229.995 239.386 230.682 239.563 231.349 239.773C233.874 240.709 235.658 242.828 237.454 244.792C239.085 246.343 240.08 248.394 241.488 250.128C243.573 252.759 246.729 254.367 249.712 255.779C250.797 256.248 251.867 256.756 252.855 257.407C253.371 257.741 253.745 258.225 254.008 258.775C254.819 260.618 255.632 262.627 257.446 263.707C258.427 264.302 259.478 264.818 260.596 265.096C262.299 265.517 264.219 265.37 265.648 264.279C266.517 263.657 267.202 262.82 267.892 262.013C268.135 261.788 268.353 261.416 268.702 261.37C270.133 261.556 271.526 261.96 272.897 262.399C273.831 262.729 274.749 263.107 275.569 263.669C276.501 264.317 277.276 265.17 278.202 265.82C278.176 266.143 278.197 266.47 278.178 266.793C278.131 269.014 278.257 271.551 279.953 273.191C281.571 274.645 283.669 275.535 285.786 275.974C286.888 276.146 288.033 276.078 289.107 275.773C290.165 275.505 291.126 274.825 292.226 274.753C292.602 275.034 292.713 275.52 292.897 275.932C293.103 276.456 293.324 276.977 293.451 277.528C293.585 278.276 293.517 279.038 293.477 279.792C293.388 281.278 293.144 282.742 292.761 284.179C292.371 285.742 292.161 287.338 291.893 288.923C291.808 289.231 291.768 289.574 291.545 289.817C291.046 290.32 290.513 290.791 290.061 291.339C289.441 292.072 288.918 292.872 288.532 293.753C287.956 295.08 287.844 296.607 288.334 297.977C288.544 298.599 288.871 299.176 289.285 299.684C289.808 300.334 290.475 300.877 290.852 301.637C291.315 302.716 291.254 303.946 291.712 305.028C291.884 305.455 292.095 305.871 292.384 306.234C293.547 307.855 295.917 307.84 297.061 309.468C298.123 311.037 298.042 313.084 299.123 314.647C301.142 317.616 303.476 316.635 306.062 315.044C306.667 314.668 307.183 314.034 307.924 313.957C307.695 314.792 307.041 315.386 306.529 316.053C305.637 317.125 305 318.367 304.51 319.665C303.402 322.366 301.881 323.905 303.019 327.031C303.669 328.971 305.869 329.558 307.088 331.029C307.126 331.108 307.203 331.176 307.2 331.269C307.135 331.874 307.018 332.473 306.962 333.08C306.64 335.645 307.678 338.066 309.26 340.034C310.318 341.546 311.749 342.786 313.418 343.585C315.388 344.663 317.753 344.026 319.788 344.856C320.654 345.319 321.425 345.995 321.962 346.818C322.234 348.379 321.51 349.832 320.943 351.241C320.399 352.422 320.376 353.717 320.338 354.991C320.31 355.597 320.023 356.142 319.756 356.675C319.631 356.9 319.535 357.153 319.336 357.323C318.497 357.968 317.601 358.642 317.231 359.676C316.514 361.466 317.288 363.151 318.974 364.011C320.707 364.933 322.586 365.527 324.478 366.026C325.086 366.224 326.822 366.398 326.95 367.101C326.971 367.521 326.716 367.974 326.381 368.224C325.888 368.504 325.287 368.449 324.742 368.534C323.684 368.78 322.571 368.64 321.535 368.995C320.302 369.339 319.369 370.246 318.263 370.838C317.1 371.439 316.252 371.237 316.023 369.874C315.834 368.842 315.755 367.78 315.327 366.808C314.405 364.534 311.443 363.587 309.3 364.689C308.218 365.215 307.939 366.436 307.506 367.445C306.517 367.689 305.461 367.296 304.852 366.483C304.221 365.668 303.491 364.942 302.608 364.406C302.019 363.973 301.418 363.515 300.692 363.345C299.253 363.014 297.745 363.385 296.337 363.725C294.919 364.116 293.133 365.269 291.952 363.776C291.095 362.508 290.906 360.684 289.39 359.975C288.175 359.429 286.041 359.786 284.78 360.211C284.034 360.48 283.391 360.952 282.75 361.412C281.023 362.565 279.652 364.196 278.62 365.986C278.125 366.921 277.849 367.95 277.622 368.976C277.261 370.522 276.925 372.102 277.065 373.7C277.116 375.408 277.719 377.034 278.412 378.578C278.677 379.202 278.959 379.824 279.104 380.489C279.216 381.238 279.219 382.007 279.091 382.755C278.864 384.082 277.851 385.026 277.074 386.056C276.577 386.696 276.093 387.371 275.793 388.131C275.541 388.804 275.365 389.494 275.333 390.216C275.333 391.159 275.293 392.135 274.847 392.987C274.142 394.531 272.203 394.518 270.818 395.057C269.332 395.622 267.907 396.673 267.292 398.179C266.95 399.147 266.771 400.164 266.671 401.183C266.661 403.43 265.33 404.838 263.552 406.02C262.319 406.823 261.11 407.66 259.909 408.511C259.42 408.857 258.959 409.248 258.548 409.687C256.749 411.613 255.76 414.14 255.437 416.731C255.381 419.274 254.159 420.232 251.687 420.398C247.897 420.381 244.89 422.247 244.255 426.171C244.002 428.617 245.208 431.078 247.24 432.441C247.892 433.089 248.517 433.771 249.29 434.282C250.228 434.998 251.362 435.348 252.371 435.928C253.594 436.85 254.475 438.145 255.679 439.09C256.481 439.763 257.418 440.228 258.378 440.629C259.418 441.115 260.465 441.595 261.597 441.82C262.607 442.056 263.633 442.236 264.671 442.177C266.277 442.069 268.152 442.045 269.339 440.795C270.239 439.782 270.878 438.569 271.755 437.537C272.226 437.034 272.388 436.833 273.003 437.3C274.154 438.211 275.517 439.172 277.048 438.601C278.01 438.325 278.626 437.497 279.301 436.818C280.302 436.954 281.333 437.07 282.317 436.769C283.877 436.257 285.34 435.423 286.614 434.393C287.474 433.671 288.116 432.743 288.84 431.894C289.122 431.588 289.432 431.31 289.81 431.127C290.145 430.938 290.525 430.936 290.897 430.974C292.959 431.112 294.942 431.683 296.921 432.242C297.957 432.579 299.106 432.588 300.096 432.985C300.565 433.233 300.962 433.586 301.376 433.915C301.992 434.42 302.65 434.879 303.177 435.482C303.845 436.278 304.308 437.21 304.784 438.126C305.451 439.563 306.659 441.34 308.483 440.912C309.78 440.614 310.98 439.803 311.649 438.642C312.035 437.96 312.288 437.208 312.538 436.467C312.848 435.544 313.15 434.58 313.176 433.601C313.205 432.556 313.152 431.499 313.042 430.46C312.851 427.863 311.505 425.146 308.971 424.156C308.018 423.759 306.982 423.682 305.977 423.502C305.153 423.326 304.516 422.568 304.476 421.727C304.381 419.402 305.249 417.219 305.895 415.028C306.342 413.535 306.587 411.991 307.016 410.496C307.479 409.282 308.181 408.154 309.001 407.15C309.056 409.545 307.78 411.794 308.045 414.204C308.096 414.677 308.226 415.127 308.372 415.575C308.74 416.66 309.124 417.82 310.06 418.55C311.691 419.928 314.303 419.548 315.726 418.043C316.62 417.038 317.063 415.682 317.278 414.374C317.533 412.475 316.463 409.681 318.647 408.623C319.361 408.398 320.104 408.301 320.826 408.097C322.433 407.556 324.098 407.22 325.795 407.154C329.162 407.074 330.014 407.029 332.898 405.209C334.605 404.16 336.238 402.931 337.605 401.463C338.327 400.534 339.161 399.676 339.762 398.661C340.174 397.915 340.486 397.125 340.82 396.342C341.198 395.456 341.644 394.594 341.92 393.667C342.465 391.859 342.397 389.912 341.86 388.11C341.629 387.216 341.444 386.288 341.085 385.436C340.127 383.022 338.185 381.126 336 379.79C334.244 378.618 330.075 378.109 330.105 375.516C330.205 374.435 330.625 373.399 331.349 372.584C332.244 371.535 333.174 371.038 334.56 370.995C335.707 370.957 336.945 371.095 337.928 371.728C338.558 372.163 339.178 372.622 339.671 373.21C340.357 374.059 341.038 374.771 341.705 375.671C342.349 376.834 342.782 378.108 343.298 379.33C343.742 380.625 343.604 382.016 343.68 383.36C343.724 384.398 343.816 385.434 344.077 386.443C344.289 387.398 344.818 388.26 345.58 388.874C346.103 389.324 346.708 389.823 347.442 389.798C349.158 389.81 350.182 388.224 350.995 386.92C351.409 386.139 351.861 385.381 352.322 384.631C352.887 383.612 353.411 382.521 354.435 381.882C355.341 381.381 356.095 380.688 356.807 379.947C357.303 379.463 357.822 378.988 358.219 378.416C358.934 377.433 359.361 376.285 359.983 375.246C360.726 374.046 361.306 372.76 361.911 371.488C362.667 370.125 363.02 368.608 363.047 367.054C363.172 365.235 363.752 363.415 364.735 361.877C365.697 360.546 366.659 359.202 367.906 358.121C368.938 357.147 369.959 356.123 371.133 355.323C372.426 354.734 372.579 355.545 373.392 356.28C374.212 357.03 375.002 357.92 376.161 358.092C378.059 358.283 380.03 358.227 381.841 357.571C385.379 356.777 386.472 353.116 388.566 353.405C388.377 354.191 388.084 354.947 387.961 355.749C387.708 357.123 388.405 358.643 389.778 359.09C390.753 359.442 391.817 359.351 392.832 359.259C394.465 359.142 396.002 358.556 397.542 358.043C399.045 357.482 400.395 356.535 401.565 355.448C403.171 353.864 404.404 351.785 404.529 349.494C404.721 347.608 404.736 345.665 405.409 343.869C405.895 342.368 406.806 341.036 407.201 339.506C407.551 338.009 407.479 336.459 407.755 334.955C407.884 334.252 408.432 333.775 409.09 333.56C409.432 333.471 409.798 333.615 410.129 333.707C410.949 333.976 411.641 334.592 411.466 335.522C411.371 336.535 411.169 337.541 410.967 338.537C410.613 339.992 410.286 341.536 409.88 342.996C409.592 343.797 409.15 344.527 408.766 345.283C407.158 348.281 407.303 350.475 407.993 353.7C408.275 355.624 408.952 357.096 410.64 358.172C412.798 359.537 415.218 360.442 417.694 361.045C418.529 361.226 419.363 361.368 420.217 361.419C421.436 361.51 422.718 361.296 423.859 361.835C423.725 363.506 422.705 364.918 421.453 365.965C420.913 366.415 420.349 366.857 419.673 367.078C418.89 367.368 418.041 367.243 417.225 367.216C416.342 367.188 415.533 366.816 414.707 366.543C413.792 366.25 412.868 365.99 411.963 365.666C410.426 365.139 408.986 364.36 407.411 363.939C404.733 363.306 400.633 362.865 399.499 366.078C399.075 367.141 399.463 368.224 400.153 369.072C400.64 369.723 401.225 370.316 401.916 370.749C402.897 371.43 404.241 371.753 404.876 372.83C405.009 373.267 405.086 373.826 404.971 374.28C404.175 374.683 403.247 374.807 402.546 375.403C400.996 376.559 401.875 378.739 402.982 379.89C404.33 381.266 406.213 381.933 407.963 382.644C409.71 383.296 411.396 384.094 413.14 384.75C414.892 385.341 416.645 385.935 418.378 386.579C419.232 386.897 420.115 387.127 420.984 387.398C421.62 387.587 422.13 387.999 422.553 388.498C423.984 390.331 425.237 391.796 427.498 392.632C429.931 393.582 432.225 394.664 434.864 393.745C436.193 393.339 437.412 392.599 438.287 391.507C439.011 390.694 439.448 389.806 440.336 389.154C440.525 389.042 440.746 389.012 440.962 388.995C442.268 388.917 443.578 388.904 444.884 388.976C446.88 389.18 448.876 389.39 450.874 389.579C452.17 389.672 453.469 389.549 454.762 389.467C456.07 389.407 457.385 389.339 458.658 389.004C459.931 388.725 461.226 387.942 462.529 388.479C463.477 389.035 464.041 390.156 464.763 390.968C466.398 393.182 468.261 394.996 471.231 394.739C472.669 394.586 474.405 394.149 474.951 392.635C475.287 391.543 475.567 390.42 475.905 389.318C475.421 392.668 476.125 396.421 479.02 398.106C479.603 400.727 478.157 401.23 476.057 401.992C472.673 403.857 468.301 403.644 465.816 406.982C464.479 407.836 461.861 404.139 458.159 406.022C455.777 406.904 454.979 409.299 453.87 411.301C450.501 413.656 447.33 413.828 445.543 418.23C444.232 421.568 441.544 419.062 437.894 421.205C432.989 423.525 427.655 432.218 432.668 436.661C434.938 438.468 438.024 438.92 440.848 438.659C444.124 437.99 446.672 437.336 449.611 439.502C452.121 440.873 453.125 443.634 455.153 445.504C457.641 447.97 461.754 450.274 465.26 448.866C467.258 447.87 468.556 445.71 470.828 445.224C474.176 444.309 472.479 448.481 472.97 450.284C474.019 453.794 477.404 456.325 477.419 460.204C477.317 462.865 474.947 464.458 475.089 467.583C474.732 470.645 475.911 474.531 473.091 476.707C471.859 477.48 470.481 478.069 469.505 479.188C467.897 480.995 468.384 483.653 469.15 485.727C470.371 488.887 473.943 489.879 476.803 491.019C480.319 493.514 483.736 496.38 488.127 497.168C496.355 498.438 503.166 495.951 509.201 490.346C511.104 487.762 514.578 486.73 515.981 483.793C517.616 480.823 516.202 476.378 519.311 474.291C523.171 472.042 527.566 470.883 531.991 470.507C534.911 470.214 537.155 468.28 539.525 466.795C543.165 468.225 547.577 468.112 549.951 464.587C550.93 463.173 551.182 461.379 552.337 460.06C554.735 456.743 557.232 459.65 557.51 453.14C557.839 450.584 561.05 449.643 563.228 449.152C564.659 448.751 566.388 447.972 567.732 448.987C570.539 453.374 574.65 455.76 579.956 454.333C581.795 453.877 583.383 452.607 585.316 452.592C586.991 452.478 588.295 453.947 589.932 454.191C592.27 454.868 594.79 454.346 596.75 452.924C597.574 452.144 598.653 451.911 599.718 451.639C602.23 450.813 604.594 448.779 604.795 446.001C605.046 442.101 600.08 438.308 602.908 434.497C603.698 433.87 604.848 434.187 605.751 433.743C606.896 433.408 607.872 432.694 608.781 431.944C611.807 429.5 610.253 425.387 610.699 422.064C611.121 417.756 605.726 417.654 602.659 417.922C601.256 418 599.893 417.2 598.462 416.843C594.246 415.374 590.853 417.489 588.087 420.561C587.464 421.568 587.061 422.689 585.946 423.264C584.763 424.203 583.604 425.29 583.071 426.738C582.774 427.564 582.942 428.674 582.003 429.112C577.671 430.498 579.33 427.636 577.319 425.551C575.276 423.668 572.268 424.377 570.142 425.738C566.736 427.386 566.999 429.063 565.526 431.961C562.702 435.009 558.309 436.166 554.257 435.665C552.236 434.856 549.993 434.915 547.983 434.123C546.717 432.535 545.504 430.271 543.08 430.509C540.944 430.554 539.742 435.089 537.913 432.119C537.682 431.393 537.448 430.55 538.217 430.093C539.342 429.178 540.496 428.29 541.487 427.224C544.207 424.578 543.252 420.241 540.839 417.726C539.096 415.302 536.331 414.922 533.798 413.887C531.807 411.305 532.231 410.787 528.813 409.471C527.063 408.273 528.753 406.01 527.8 404.479C524.54 400.514 521.835 406.638 519.3 406.299C518.782 404.186 521.396 402.75 521.627 400.733C521.534 397.461 517.451 398.669 515.752 399.956C511.454 401.223 514.767 397.323 511.787 395.361C507.513 391.751 504.995 398.58 500.171 396.813C502.3 393.711 500.493 390.586 497.03 389.866C494.792 389.447 492.577 390.878 490.371 389.908C487.494 388.573 491.904 383.822 484.644 384.232C483.84 383.067 482.202 382.742 480.894 383.124C481.149 382.944 481.408 382.772 481.67 382.616C482.247 382.336 482.884 382.224 483.496 382.049C484.205 381.856 484.925 381.689 485.655 381.61C486.679 381.559 487.711 381.708 488.691 382.007C489.69 382.417 490.511 383.177 491.246 383.954C491.987 384.818 492.694 385.772 493.675 386.379C495.482 387.462 497.686 387.243 499.493 386.283C501.171 385.538 502.082 384.018 501.489 382.207C501.262 381.264 500.701 380.336 500.85 379.34C501.351 378.493 504.368 379.174 505.247 379.304C507.587 379.763 509.628 381.156 511.405 382.693C512.287 383.468 513.38 384.406 512.631 385.661C512.541 385.831 512.435 385.99 512.306 386.133C511.669 386.799 511.034 387.49 510.692 388.36C510.091 389.949 510.46 391.934 511.7 393.121C512.167 393.562 512.754 393.864 513.344 394.11C514.578 394.637 515.922 394.42 517.175 394.087C518.95 393.622 520.829 393.155 522.241 391.919C523.472 390.927 523.782 389.503 523.579 387.997C523.534 387.154 523.532 386.313 523.562 385.468C523.636 384.614 523.833 383.585 524.613 383.099C527.072 381.667 530.066 382.544 532.728 381.89C534.049 381.621 535.251 380.981 536.393 380.285C537.763 379.533 538.933 378.433 539.646 377.03C540.262 376.176 541.209 372.155 542.375 372.441C543.184 373.1 543.666 374.061 544.394 374.802C545.167 375.639 546.299 376.253 547.466 376.026C548.963 375.764 550.078 374.573 550.802 373.306C551.579 372.127 551.943 370.719 551.766 369.311C551.573 367.541 550.581 366.027 549.908 364.423C549.654 363.462 549.796 362.413 550.025 361.461C552.019 361.897 552.253 362.338 553.14 364.137C553.707 365.315 554.384 366.525 555.552 367.192C556.915 368.025 558.476 367.351 559.75 366.651C561.336 365.857 562.697 364.706 563.993 363.512C564.651 362.903 565.282 362.253 565.84 361.55C566.466 360.76 567.01 359.909 567.658 359.138C568.237 358.516 568.872 357.943 569.503 357.376C571.384 355.571 574.034 355.323 576.474 354.851C578.173 354.511 579.912 353.936 581.655 354.305C581.952 354.359 582.012 354.737 582.167 354.955C582.957 356.543 583.7 358.238 585.061 359.427C585.925 360.253 586.991 361.054 588.246 360.971C589.45 360.882 590.505 360.162 591.371 359.365C593.03 357.854 594.128 355.883 595.009 353.845C595.245 353.358 595.533 352.9 595.831 352.45C596.818 351.069 597.735 349.607 599.005 348.464C600.105 347.466 601.593 347.213 602.997 346.916C604.366 346.63 605.806 346.632 607.163 346.982C608.063 347.247 608.392 348.228 608.953 348.878C609.333 349.367 609.773 349.804 610.293 350.144C611.089 350.666 612.081 350.923 613.021 350.668C613.771 350.473 614.434 350.046 614.996 349.521C617.111 347.5 617.12 344.385 618.018 341.769C618.447 340.561 619.183 339.491 619.978 338.497C620.54 337.841 621.283 337.399 622.025 336.975C622.747 336.565 623.451 336.113 624.227 335.809C625.331 335.477 626.484 335.344 627.626 335.212C630.673 335.036 634.296 335.556 636.684 333.25C639.048 330.859 639.215 326.935 642.033 324.909C642.764 324.413 643.66 324.287 644.524 324.358C646.326 324.44 648.051 325.016 649.834 325.219C652.204 325.447 654.633 325.152 656.909 324.459C661.167 322.971 665.515 321.569 669.399 319.23C671.212 318.128 672.389 316.325 673.468 314.55C674.773 312.917 675.5 310.87 675.602 308.787C675.64 306.714 674.591 304.878 673.569 303.149C673.274 302.563 673.056 301.93 673.017 301.274C672.998 300.711 673.111 300.159 673.215 299.609C673.538 297.992 674.132 296.441 674.327 294.798C674.442 293.987 674.429 293.31 674.578 292.464C674.844 291.4 675.415 290.388 676.243 289.661C677.653 288.464 679.241 287.487 680.993 286.88C682.082 286.527 683.21 286.315 684.288 285.926C685.77 285.372 687.18 284.646 688.62 283.996C689.223 283.716 689.834 283.442 690.406 283.102C692.561 281.882 693.27 279.956 693.079 277.596C693.053 276.639 692.911 275.668 693.079 274.719C693.476 273.426 694.602 272.231 695.848 271.715C697.194 271.377 698.617 271.56 699.988 271.6C701.377 271.704 702.766 271.868 704.135 272.129C705.787 272.541 707.463 272.823 709.153 273.029C711.603 273.265 714.079 273.21 716.53 273.029C718.167 272.87 719.817 272.796 721.439 272.515C723.278 272.154 725.093 271.662 726.866 271.056C729.499 270.035 732.368 269.167 734.455 267.179C736.048 265.619 736.226 263.778 736.086 261.68C736.06 259.223 736.063 256.762 736.196 254.309C736.26 251.284 737.818 250.044 739.273 247.653C740.519 245.383 741.566 242.833 741.273 240.195C741.02 237.486 739.507 235.552 737.322 234.076L737.336 234.074ZM736.854 205.328C736.848 205.364 736.842 205.4 736.835 205.434C736.835 205.463 736.838 205.491 736.838 205.519C736.838 205.495 736.835 205.468 736.833 205.442C736.804 205.569 736.84 205.385 736.829 205.362C736.84 205.391 736.846 205.359 736.854 205.328ZM733.589 163.219C733.584 163.132 733.578 163.066 733.572 162.973C733.584 163.057 733.587 163.138 733.589 163.219ZM306.519 325.736C306.5 325.684 306.459 325.642 306.432 325.593C306.457 325.629 306.481 325.666 306.506 325.702C306.481 325.631 306.51 325.706 306.527 325.735C306.523 325.729 306.517 325.723 306.514 325.716C306.521 325.736 306.519 325.736 306.517 325.735L306.519 325.736Z" stroke="black" stroke-width="2" stroke-linecap="round" stroke-linejoin="round"/>
</svg>
