<svg xmlns="http://www.w3.org/2000/svg" width="63.835" height="64.007" viewBox="0 0 63.835 64.007">
  <path d="M32.264,0A32,32,0,0,0,20.722,61.9a36.115,36.115,0,0,1,0-9.2l3.672-16a11.544,11.544,0,0,1-1.05-4.722c0-4.46,2.624-7.87,5.77-7.87s3.934,2.1,3.934,4.46-1.836,6.8-2.624,10.754S32,45.1,35.144,45.1s9.968-6.032,9.968-14.688S39.6,17.292,31.732,17.292s-14.164,7.08-14.164,14.164a12.9,12.9,0,0,0,2.36,7.344,1.052,1.052,0,0,1,.262.786L19.4,43.258c-.26.524-.524.786-1.05.524-3.934-1.836-6.56-7.606-6.56-12.328,0-9.968,7.344-19.41,21.246-19.41s19.672,7.87,19.672,18.36S45.632,50.34,36.186,50.34c-3.148,0-6.3-1.574-7.344-3.672l-2.1,7.606a35.51,35.51,0,0,1-3.934,8.394A32,32,0,1,0,32.264,0Z" transform="translate(-0.112 0)" fill="#fff"/>
</svg>
