<svg xmlns="http://www.w3.org/2000/svg" width="33.318" height="27.769" viewBox="0 0 33.318 27.769">
  <path d="M516.414,500.161a3.682,3.682,0,0,0-6.243-2.636,19,19,0,0,0-9.674-2.839l2.059-6.481,5.571,1.305-.008.076a3.03,3.03,0,1,0,.212-1.09l-6.009-1.4a.514.514,0,0,0-.611.346l-2.3,7.228a19.229,19.229,0,0,0-10.13,2.811,3.666,3.666,0,1,0-4.356,5.837,6.6,6.6,0,0,0-.119,1.19c0,5.429,6.674,9.846,14.88,9.846s14.881-4.416,14.881-9.846a6.515,6.515,0,0,0-.1-1.124,3.654,3.654,0,0,0,1.95-3.218ZM492.5,502.686a2.2,2.2,0,1,1,2.215,2.185H494.7A2.195,2.195,0,0,1,492.5,502.686Zm12.578,6.481c-1.106,1.1-2.843,1.637-5.308,1.637h-.036c-2.467,0-4.2-.536-5.308-1.637a.515.515,0,0,1,.709-.748l.021.022c.9.9,2.4,1.334,4.578,1.334h.036c2.178,0,3.676-.437,4.578-1.335a.515.515,0,1,1,.73.727Zm-.262-4.3a2.186,2.186,0,1,1,2.195-2.181A2.186,2.186,0,0,1,504.819,504.867Z" transform="translate(-483.099 -486.58)" fill="#fafdff"/>
</svg>
