<svg width="740" height="503" viewBox="0 0 740 503" fill="none" xmlns="http://www.w3.org/2000/svg">
<path d="M497.265 19.1098V14.9312C498.658 13.0741 499.586 10.7526 499.586 10.7526L500.515 8.43117L500.979 5.64543L507.013 5.18115L509.334 4.25257L514.439 5.18115L517.225 4.71686L520.011 4.25257C521.404 4.25257 525.118 2.39541 525.118 2.39541C527.439 0.538252 529.761 1.93112 529.761 1.93112C531.618 1.46683 533.475 3.78828 533.475 3.78828L530.225 9.82202L528.368 14.0006L529.761 20.0344L533.475 20.4987L533.94 30.711L541.366 33.4967L544.616 36.2825L546.009 39.9968L551.58 51.602L554.831 53.9235L557.152 58.5663V62.2807L557.616 65.0664L558.08 68.7807C559.009 70.1736 558.545 73.4236 558.545 73.4236C558.081 74.8165 560.402 82.2431 560.402 82.2431L573.864 85.9574L578.507 95.2412L591.97 98.9555L609.146 112.418L610.075 131.914L635.607 169.98L630.964 180.656L635.142 212.686L628.18 249.359L653.712 287.889L647.678 299.958L645.821 305.992L644.428 309.707L642.571 313.885V317.599L640.714 321.314L638.857 324.564L637.928 330.133V334.776L639.321 339.419L640.714 342.205L641.178 346.383L642.107 351.026L641.642 354.741L637.928 357.991L635.142 363.098L632.821 366.812C632.821 366.812 630.964 369.134 629.571 369.134C628.178 369.134 624.464 370.526 624.464 370.526C624.464 370.526 623.535 372.384 622.142 373.776C620.749 375.169 618.428 377.026 618.428 377.026L616.571 375.634L613.321 373.312C610.071 372.384 608.216 370.991 608.216 370.991C608.216 370.991 606.823 367.276 604.966 366.348C603.108 365.419 598.468 366.812 598.468 366.812L595.682 370.526C593.825 372.848 588.72 378.882 588.72 378.882L586.862 381.667L579.436 379.346L572.938 378.882L566.44 381.667L561.333 384.453L557.154 382.596L547.87 380.739L544.62 378.882L542.763 375.632L541.834 372.846L539.513 370.524L536.263 369.596L533.477 367.739C532.084 367.739 532.084 364.953 532.084 364.953L529.763 361.703L530.691 358.917L529.299 356.131L525.12 358.453L520.477 358.917L516.299 354.739C513.048 353.346 510.263 354.739 510.263 354.739C507.941 357.524 507.477 360.772 507.477 360.772L507.013 364.951C506.548 366.808 476.376 370.987 476.376 370.987L471.735 369.129L466.165 364.487L461.987 371.913L459.201 373.306L457.344 381.197L454.558 385.84L448.06 384.447L441.562 388.161L437.848 390.483L426.707 382.592L422.066 378.878C419.28 376.556 418.816 374.699 418.816 374.699L413.244 366.344L408.139 364.951L404.425 364.022L399.318 362.165L391.427 357.987L390.498 364.485L388.177 369.127L392.355 383.054L392.82 389.088L393.748 393.731L395.605 396.981L394.213 399.767L387.715 404.872L386.322 409.979L384.929 415.548L381.215 421.584L381.679 426.689L383.536 431.796L383.072 435.975V448.509L382.607 452.687L380.286 459.185L377.965 464.291L376.107 468.933L369.609 476.36C369.609 476.36 368.216 479.61 366.359 480.074C364.502 480.539 360.79 482.396 360.79 482.396L356.147 484.253L351.504 482.396L348.254 480.539L345.933 479.61L338.97 481.003C337.113 482.86 334.327 490.751 334.327 490.751L332.47 494.001L327.363 493.537L323.184 494.93L315.758 490.751L310.651 488.894L306.936 486.572C304.615 486.108 299.974 488.894 299.974 488.894L298.117 491.68L293.474 494.001L291.617 490.751H285.583L280.012 494.001L276.762 494.93H274.904L273.047 499.108L266.549 498.18L262.371 491.682H254.48L250.301 488.896L243.339 491.682L234.055 496.325H230.805L228.948 501.43C227.091 499.573 225.698 494.932 225.698 494.932L221.984 487.041L222.448 483.326L221.984 480.076L219.198 479.148L218.269 475.898C220.126 474.505 221.984 473.112 221.984 473.112C221.984 471.255 220.126 461.969 220.126 461.969L215.948 458.719C215.019 456.862 215.019 448.507 215.019 448.507C211.769 445.257 204.343 444.328 204.343 444.328L199.235 441.078L196.45 438.292L188.413 442.196C188.413 442.196 185.113 442.608 184.699 441.991C184.287 441.371 183.048 440.753 182.43 439.928C181.812 439.102 181.193 440.547 180.779 439.722C180.367 438.896 179.128 439.31 179.128 439.31L176.033 439.104C176.033 439.104 174.59 439.516 173.97 439.104C173.35 438.69 172.113 439.724 172.113 439.724C171.287 439.312 169.636 434.772 169.636 434.772L168.193 432.915L165.304 432.295L163.653 435.184L162.207 436.629L159.319 437.041C159.319 437.041 157.256 436.629 157.05 435.598C156.844 434.566 154.367 433.534 154.367 433.534L150.035 432.709H147.352L145.083 435.598C145.083 435.598 144.257 435.392 142.814 434.978C141.371 434.566 142.402 433.946 141.371 434.566C140.339 435.186 139.72 437.661 139.72 437.661C139.72 437.661 139.925 439.518 139.514 440.343C139.102 441.169 139.514 443.232 139.514 443.232L139.925 445.501L140.545 447.976L140.133 450.039L138.482 452.308L137.862 453.959L139.306 455.402L139.718 457.26C139.718 457.26 140.129 458.497 139.512 459.117C138.894 459.737 138.892 460.974 138.892 460.974C138.892 460.974 138.892 462.005 139.098 462.625C139.304 463.245 140.335 463.243 139.718 464.069C139.1 464.894 137.449 468.195 137.449 468.195L135.797 470.877L135.591 472.115L135.385 474.178L133.734 472.733L123.831 463.655L120.942 461.18H119.291C119.291 461.18 118.053 462.211 117.022 462.417C115.99 462.623 115.165 463.037 115.165 463.037C113.308 462.211 111.656 460.56 111.656 460.56C111.656 460.56 110.419 459.94 109.179 458.909C107.942 457.877 105.879 457.052 105.879 457.052H103.816C103.816 457.052 102.784 457.258 101.339 456.434C99.8956 455.608 99.8956 456.022 99.2759 454.783C98.6562 453.545 98.8641 452.926 98.4503 452.306C98.0385 451.686 98.2444 452.306 97.2128 451.274C96.1813 450.243 96.801 451.686 96.1813 450.243C95.5616 448.797 96.3872 446.734 96.3872 446.734C97.0069 444.26 94.53 424.658 94.53 424.658C94.53 424.658 93.2926 421.976 92.467 421.15C91.6414 420.324 90.6098 419.293 90.6098 419.293C90.6098 419.293 90.8157 418.467 89.7842 418.055C88.7527 417.644 87.5152 416.818 87.5152 416.818C87.5152 416.818 85.6581 415.992 85.4522 415.167C85.2463 414.341 85.864 412.898 85.864 412.898L88.3409 410.215L92.2611 407.12L93.7044 404.851L93.2906 397.631L90.196 394.536L88.3388 392.267C88.3388 392.267 87.927 391.442 87.5132 389.379C87.1014 387.316 87.7191 386.696 87.3073 385.87C86.8955 385.045 91.8473 376.173 91.8473 376.173L98.8621 369.57L109.797 370.807L114.129 370.187L113.098 365.647L113.923 364.41L119.081 361.727C119.081 361.727 121.35 359.664 121.144 358.633C120.938 357.601 122.175 353.887 122.175 353.887C122.175 353.887 123.207 351.824 123.207 350.998C123.207 350.172 124.65 348.109 124.65 348.109L149.409 342.332L153.123 341.506L171.279 304.781L172.311 289.1L160.138 250.104V233.186L166.533 217.299L180.563 197.492L192.118 182.017V173.351L196.244 169.636L199.132 162.208L210.067 155.813L217.288 141.369L224.303 130.64L249.681 128.783L262.268 110.008L268.045 104.644L275.885 99.4864L281.663 95.1544L302.707 95.7741L310.96 94.3308L313.848 92.2677L319.42 86.9041L324.166 84.2214C324.166 84.2214 331.8 83.1898 332.832 83.1898C333.863 83.1898 337.371 84.8411 337.371 84.8411L339.848 87.5239L342.325 89.381L345.008 91.8579L346.245 90.6205L346.657 85.2569L348.309 80.9249L350.578 78.8618L352.641 78.6559L353.878 73.9101L359.036 76.7988L359.242 81.1308L363.782 87.9397L370.179 88.1456V96.8117L371.21 105.684L372.861 112.079L379.67 121.982L401.746 111.459C401.746 111.459 406.492 105.27 406.698 104.65C406.904 104.03 409.381 102.999 409.381 102.999L418.047 106.919L416.809 99.6983L422.381 95.984L424.238 92.4756L426.715 91.4441H433.112L437.238 95.7761L439.301 88.9672L446.316 85.2529L450.236 84.2214L448.379 77.0007C448.379 77.0007 449.411 74.112 450.236 73.2863C451.062 72.4607 451.062 70.6035 451.062 69.572C451.062 68.5405 451.268 65.24 451.062 64.6203C450.856 64.0005 451.887 63.5887 451.887 63.5887L455.602 63.3828L456.221 65.6518L459.316 64.4144L463.03 64.0026L473.346 50.1789L478.709 47.0843L482.218 42.9581L484.281 38.832L485.726 36.3551C485.726 36.3551 486.346 34.2921 486.346 33.2606C486.346 32.229 486.552 29.9601 486.552 29.9601L495.835 24.5945L498.518 23.563L497.253 19.1118L497.265 19.1098Z" stroke="black" stroke-width="1.53588" stroke-linecap="round" stroke-linejoin="round"/>
</svg>
