<svg xmlns="http://www.w3.org/2000/svg" width="24.983" height="33.317" viewBox="0 0 24.983 33.317">
  <path d="M509.994,508.08l-.133-.094h-4.545c-.212,0-.222-.648-.226-.863V499.19a.139.139,0,0,1,.14-.14h5.3a.14.14,0,0,0,.14-.14v-8a.14.14,0,0,0-.14-.139h-5.277a.141.141,0,0,1-.139-.14v-6.69a.14.14,0,0,0-.141-.139h-9.924a1.609,1.609,0,0,0-1.577,1.435c-.472,3.857-2.612,5.727-5.935,6.837l-.371.128-.094.129v6.58a.141.141,0,0,0,.139.14h4.026V507.6c0,6.469,4.22,9.522,12.5,9.522,3.333,0,7.008-1.187,8.1-2.625l.218-.289-2.066-6.125Zm.471,5.911c-1.041,1-3.545,1.744-5.592,1.778h-.229c-6.731,0-7.888-5.138-7.888-8.175v-9.77a.14.14,0,0,0-.139-.14h-3.862a.14.14,0,0,1-.14-.14h0l-.033-4.248.09-.128c3.479-1.355,5.421-3.6,5.932-7.764a.241.241,0,0,1,.221-.237h4.785a.14.14,0,0,1,.14.14v6.685a.141.141,0,0,0,.139.14h5.279a.14.14,0,0,1,.14.139v5.277a.14.14,0,0,1-.14.14h-5.3a.134.134,0,0,0-.135.134v9.314c.032,2,.993,3.008,2.867,3.008a6.609,6.609,0,0,0,2.339-.478.136.136,0,0,1,.177.077l0,.008,1.381,4.1Z" transform="translate(-487.072 -483.802)" fill="#fafdff" fill-rule="evenodd"/>
</svg>
