<svg width="740" height="502" viewBox="0 0 740 502" fill="none" xmlns="http://www.w3.org/2000/svg">
<path d="M40.813 58.1896L47.0031 29.7654L49.4143 29.1556L50.0372 31.5937L67.6867 27.0967L69.7048 23.9815L77.1751 22.0784L76.5113 19.437L76.4774 8.83787L75.1771 3.72454L82.6405 1.81479L95.9012 1.1038L133.828 2.18723L138.833 0.914062L136.862 4.05647L135.751 9.74563L191.341 27.8217L190.65 36.0365L689.241 24.3676L698.262 207.451L688.32 209.99L696.521 444.451L252.917 500.914L237.421 451.149L223.483 427.865L215.315 427.16L208.313 420.903L216.508 410.804L218.973 410.175L224.723 411.346L228.407 415.783L232.965 422.656L244.472 446.571L250.824 461.186L258.376 469.902L260.875 469.259L263.482 468.595L262.845 466.089L264.654 462.859L262.114 452.903L258.897 440.299L254.502 433.371L251.915 423.212L240.367 410.127L230.893 404.323L220.869 396.244L211.32 401.343L207.08 405.197L205.719 410.737L203.924 414.015L201.946 417.15L198.885 415.295L194.503 408.407L194.375 397.611L195.513 391.909L200.592 390.616L204.371 384.236L210.629 377.416L209.342 372.37L206.2 370.352L199.915 366.728L198.059 369.803L197.375 378.012L195.58 381.256L192.966 381.913L188.577 374.849L182.895 362.875L179.062 347.84L180.24 342.158L195.932 330.082L181.033 261.334L158.758 205.284L121.271 142.332L40.813 58.1896Z" stroke="black" stroke-width="1.53588" stroke-linecap="round" stroke-linejoin="round"/>
</svg>
